<svg xmlns="http://www.w3.org/2000/svg" xmlns:xlink="http://www.w3.org/1999/xlink" width="500" zoomAndPan="magnify" viewBox="0 0 375 374.999991" height="500" preserveAspectRatio="xMidYMid meet" version="1.0"><defs><g/></defs><g fill="#000000" fill-opacity="1"><g transform="translate(101.115233, 203.249005)"><g><path d="M 33.59375 -60.484375 L 33.59375 -52.5625 C 32.125 -52.5625 30.867188 -52.429688 29.828125 -52.171875 C 28.785156 -51.921875 28.003906 -51.46875 27.484375 -50.8125 C 26.972656 -50.15625 26.773438 -49.210938 26.890625 -47.984375 L 28.015625 -37.375 C 28.296875 -34.6875 28 -32.515625 27.125 -30.859375 C 26.25 -29.203125 24.914062 -27.929688 23.125 -27.046875 C 21.34375 -26.171875 19.238281 -25.554688 16.8125 -25.203125 C 19.375 -24.816406 21.539062 -24.191406 23.3125 -23.328125 C 25.09375 -22.460938 26.390625 -21.210938 27.203125 -19.578125 C 28.023438 -17.953125 28.296875 -15.769531 28.015625 -13.03125 L 26.890625 -2.40625 C 26.773438 -1.207031 26.972656 -0.273438 27.484375 0.390625 C 28.003906 1.066406 28.789062 1.53125 29.84375 1.78125 C 30.894531 2.03125 32.144531 2.15625 33.59375 2.15625 L 33.59375 10.078125 C 30.28125 10.078125 27.46875 9.835938 25.15625 9.359375 C 22.851562 8.878906 21.007812 8.117188 19.625 7.078125 C 18.25 6.035156 17.300781 4.664062 16.78125 2.96875 C 16.269531 1.28125 16.132812 -0.773438 16.375 -3.203125 L 17.453125 -13.5 C 17.648438 -15.320312 17.347656 -16.75 16.546875 -17.78125 C 15.742188 -18.8125 14.5625 -19.535156 13 -19.953125 C 11.4375 -20.378906 9.632812 -20.59375 7.59375 -20.59375 L 7.59375 -29.8125 C 9.613281 -29.8125 11.398438 -30.019531 12.953125 -30.4375 C 14.515625 -30.851562 15.703125 -31.578125 16.515625 -32.609375 C 17.335938 -33.640625 17.648438 -35.070312 17.453125 -36.90625 L 16.375 -47.125 C 16.113281 -49.59375 16.238281 -51.675781 16.75 -53.375 C 17.269531 -55.082031 18.21875 -56.457031 19.59375 -57.5 C 20.976562 -58.550781 22.828125 -59.3125 25.140625 -59.78125 C 27.460938 -60.25 30.28125 -60.484375 33.59375 -60.484375 Z M 33.59375 -60.484375 "/></g></g></g><g fill="#000000" fill-opacity="1"><g transform="translate(144.308242, 203.249005)"><g><path d="M 23.4375 1.21875 C 18.707031 1.21875 14.722656 0.21875 11.484375 -1.78125 C 8.242188 -3.78125 5.789062 -6.726562 4.125 -10.625 C 2.457031 -14.53125 1.625 -19.34375 1.625 -25.0625 C 1.625 -29.300781 2.21875 -33.046875 3.40625 -36.296875 C 4.59375 -39.554688 6.238281 -42.28125 8.34375 -44.46875 C 10.457031 -46.664062 12.914062 -48.328125 15.71875 -49.453125 C 18.53125 -50.585938 21.554688 -51.15625 24.796875 -51.15625 C 28.453125 -51.15625 31.523438 -50.585938 34.015625 -49.453125 C 36.515625 -48.328125 38.738281 -46.84375 40.6875 -45 L 34.484375 -38.59375 C 32.972656 -39.9375 31.519531 -40.929688 30.125 -41.578125 C 28.738281 -42.222656 27.15625 -42.546875 25.375 -42.546875 C 23.695312 -42.546875 22.15625 -42.21875 20.75 -41.5625 C 19.34375 -40.90625 18.117188 -39.875 17.078125 -38.46875 C 16.035156 -37.0625 15.222656 -35.25 14.640625 -33.03125 C 14.066406 -30.8125 13.78125 -28.128906 13.78125 -24.984375 C 13.78125 -20.640625 14.132812 -17.179688 14.84375 -14.609375 C 15.550781 -12.046875 16.625 -10.207031 18.0625 -9.09375 C 19.507812 -7.976562 21.335938 -7.421875 23.546875 -7.421875 C 24.722656 -7.421875 25.828125 -7.554688 26.859375 -7.828125 C 27.890625 -8.109375 28.847656 -8.472656 29.734375 -8.921875 L 29.734375 -20.34375 L 23.46875 -20.34375 L 22.3125 -28.625 L 40.890625 -28.625 L 40.890625 -3.8125 C 38.398438 -2.28125 35.71875 -1.054688 32.84375 -0.140625 C 29.976562 0.765625 26.84375 1.21875 23.4375 1.21875 Z M 23.4375 1.21875 "/></g></g></g><g fill="#000000" fill-opacity="1"><g transform="translate(187.501251, 203.249005)"><g><path d="M 40.421875 -34.734375 C 40.421875 -32.359375 39.976562 -30.28125 39.09375 -28.5 C 38.207031 -26.726562 37.007812 -25.226562 35.5 -24 C 33.988281 -22.78125 32.296875 -21.800781 30.421875 -21.0625 L 43.484375 0 L 30.125 0 L 19.328125 -19.078125 L 15.984375 -19.078125 L 15.984375 0 L 4.171875 0 L 4.171875 -49.890625 L 19.875 -49.890625 C 26.664062 -49.890625 31.785156 -48.65625 35.234375 -46.1875 C 38.691406 -43.71875 40.421875 -39.898438 40.421875 -34.734375 Z M 28.265625 -34.734375 C 28.265625 -37.140625 27.5625 -38.882812 26.15625 -39.96875 C 24.75 -41.0625 22.664062 -41.609375 19.90625 -41.609375 L 15.984375 -41.609375 L 15.984375 -27.1875 L 20.375 -27.1875 C 22.945312 -27.1875 24.90625 -27.785156 26.25 -28.984375 C 27.59375 -30.179688 28.265625 -32.097656 28.265625 -34.734375 Z M 28.265625 -34.734375 "/></g></g></g><g fill="#000000" fill-opacity="1"><g transform="translate(230.694261, 203.249005)"><g><path d="M 9.609375 -60.484375 C 12.921875 -60.484375 15.726562 -60.242188 18.03125 -59.765625 C 20.332031 -59.285156 22.171875 -58.519531 23.546875 -57.46875 C 24.929688 -56.425781 25.890625 -55.054688 26.421875 -53.359375 C 26.953125 -51.671875 27.082031 -49.617188 26.8125 -47.203125 L 25.734375 -36.90625 C 25.546875 -35.070312 25.859375 -33.640625 26.671875 -32.609375 C 27.492188 -31.578125 28.675781 -30.851562 30.21875 -30.4375 C 31.769531 -30.019531 33.566406 -29.8125 35.609375 -29.8125 L 35.609375 -20.59375 C 33.585938 -20.59375 31.796875 -20.378906 30.234375 -19.953125 C 28.679688 -19.535156 27.492188 -18.8125 26.671875 -17.78125 C 25.859375 -16.75 25.546875 -15.320312 25.734375 -13.5 L 26.8125 -3.28125 C 27.082031 -0.800781 26.957031 1.285156 26.4375 2.984375 C 25.925781 4.691406 24.976562 6.066406 23.59375 7.109375 C 22.21875 8.148438 20.367188 8.90625 18.046875 9.375 C 15.734375 9.84375 12.921875 10.078125 9.609375 10.078125 L 9.609375 2.15625 C 11.078125 2.15625 12.332031 2.03125 13.375 1.78125 C 14.414062 1.53125 15.191406 1.066406 15.703125 0.390625 C 16.222656 -0.273438 16.425781 -1.207031 16.3125 -2.40625 L 15.1875 -13.03125 C 14.90625 -15.738281 15.203125 -17.914062 16.078125 -19.5625 C 16.953125 -21.207031 18.285156 -22.46875 20.078125 -23.34375 C 21.878906 -24.21875 23.992188 -24.835938 26.421875 -25.203125 C 23.859375 -25.585938 21.679688 -26.210938 19.890625 -27.078125 C 18.097656 -27.941406 16.796875 -29.191406 15.984375 -30.828125 C 15.171875 -32.472656 14.90625 -34.65625 15.1875 -37.375 L 16.3125 -47.984375 C 16.425781 -49.210938 16.222656 -50.15625 15.703125 -50.8125 C 15.191406 -51.46875 14.414062 -51.921875 13.375 -52.171875 C 12.332031 -52.429688 11.078125 -52.5625 9.609375 -52.5625 Z M 9.609375 -60.484375 "/></g></g></g></svg>